<?xml version="1.0" encoding="utf-8"?>
<!-- Generator: Adobe Illustrator 22.1.0, SVG Export Plug-In . SVG Version: 6.00 Build 0)  -->
<svg version="1.1" id="Layer_1" xmlns="http://www.w3.org/2000/svg" xmlns:xlink="http://www.w3.org/1999/xlink" x="0px" y="0px"
	 viewBox="0 0 814 90" style="enable-background:new 0 0 814 90;" xml:space="preserve">
<style type="text/css">
	.st0{fill:#464646;}
	.st1{fill:#1D1D1B;}
</style>
<g>
	<path class="st0" d="M4.9,41.2c0-3.4,0.5-6.3,1.6-8.6c1.1-2.3,2.6-4.2,4.4-5.6s4.1-2.4,6.6-3.1c2.5-0.6,5.2-0.9,8.1-0.9
		c4.5,0,8.2,0.4,11,1.3c2.8,0.9,4.9,2.1,6.5,3.7s2.6,3.5,3.1,5.8c0.5,2.2,0.8,4.7,0.8,7.3v31c0,2.8,0.1,4.9,0.4,6.5
		c0.3,1.5,0.7,3.2,1.5,4.9H34.4c-0.5-0.9-0.9-2-1.2-3c-0.3-1.1-0.5-2.1-0.7-3.1h-0.2c-1.8,3.1-3.8,5.1-6.1,6
		c-2.3,0.9-5.3,1.4-8.9,1.4c-2.6,0-4.9-0.5-6.7-1.4c-1.8-0.9-3.3-2.2-4.4-3.8c-1.1-1.6-1.9-3.4-2.4-5.4c-0.5-2-0.8-4-0.8-6
		c0-2.8,0.3-5.2,0.9-7.2c0.6-2,1.5-3.7,2.7-5.1s2.7-2.6,4.6-3.6c1.9-0.9,4.1-1.8,6.7-2.5l8.5-2.3c2.3-0.6,3.8-1.4,4.7-2.4
		c0.9-1,1.3-2.5,1.3-4.5c0-2.3-0.5-4-1.6-5.3c-1.1-1.3-2.9-1.9-5.4-1.9c-2.3,0-4.1,0.7-5.3,2.1c-1.2,1.4-1.8,3.3-1.8,5.6v1.6H4.9
		V41.2z M29.2,55.9c-1.2,0.5-2.2,0.8-3.2,1c-3.1,0.7-5.3,1.8-6.6,3.3c-1.3,1.5-2,3.6-2,6.2c0,2.3,0.4,4.2,1.3,5.8
		c0.9,1.6,2.3,2.4,4.4,2.4c1,0,2.1-0.2,3.2-0.5c1.1-0.3,2.1-0.9,3-1.6c0.9-0.7,1.7-1.7,2.2-2.8c0.6-1.2,0.9-2.6,0.9-4.2V54
		C31.5,54.8,30.4,55.5,29.2,55.9z"/>
	<path class="st0" d="M87.7,76.6c-1.6,2.9-3.7,5-6.2,6.2c-2.6,1.2-5.5,1.9-8.8,1.9c-4.8,0-8.5-1.3-11.1-3.8
		c-2.6-2.5-3.9-6.7-3.9-12.7V24.5h15.1v40.6c0,3.1,0.5,5.2,1.5,6.4c1,1.2,2.7,1.8,4.9,1.8c5.3,0,8-3.2,8-9.8V24.5h15.1v58.9H88v-6.9
		H87.7z"/>
	<path class="st0" d="M130.9,7.7v16.9h8.8v10.3h-8.8v31.9c0,2.3,0.3,4,1,5c0.7,1,2.1,1.5,4.3,1.5c0.6,0,1.2,0,1.8-0.1
		c0.6,0,1.1-0.1,1.6-0.2v10.5c-1.7,0-3.3,0.1-4.9,0.2c-1.6,0.1-3.2,0.2-5,0.2c-2.9,0-5.3-0.2-7.2-0.6c-1.9-0.4-3.3-1.2-4.3-2.4
		s-1.7-2.8-2-4.8c-0.4-2-0.5-4.5-0.5-7.4V34.8h-7.7V24.5h7.7V7.7H130.9z"/>
	<path class="st0" d="M144.2,40.6c0.8-3.9,2.1-7.1,3.9-9.7c1.8-2.6,4.2-4.6,7.2-5.9c3-1.4,6.6-2,10.9-2c4.5-0.1,8.3,0.5,11.3,1.8
		c3,1.3,5.4,3.2,7.1,5.9c1.8,2.6,3,5.9,3.7,9.7c0.7,3.9,1.1,8.4,1.1,13.6c0,5-0.4,9.5-1.2,13.4c-0.8,3.9-2.1,7.1-3.9,9.7
		c-1.8,2.6-4.2,4.5-7.2,5.8c-3,1.2-6.6,1.9-10.9,1.9c-4.5,0.1-8.3-0.5-11.3-1.7c-3-1.2-5.4-3.1-7.1-5.7c-1.8-2.6-3-5.8-3.7-9.7
		c-0.7-3.9-1.1-8.4-1.1-13.5C143,49,143.4,44.5,144.2,40.6z M158.3,62.3c0.1,2.6,0.5,4.7,1,6.6c0.5,1.8,1.4,3.2,2.5,4.3
		c1.1,1,2.6,1.5,4.4,1.5c3.1,0,5.2-1.6,6.4-4.8c1.2-3.2,1.8-8.5,1.8-15.9c0-7.4-0.6-12.7-1.8-15.9c-1.2-3.2-3.3-4.8-6.4-4.8
		c-1.8,0-3.3,0.5-4.4,1.5c-1.1,1-1.9,2.4-2.5,4.3c-0.5,1.8-0.9,4-1,6.6c-0.1,2.6-0.2,5.3-0.2,8.3C158.1,57,158.1,59.8,158.3,62.3z"
		/>
	<path class="st0" d="M212,24.5v7.9h0.2c1.5-2.8,3.4-5.1,5.6-6.8c2.2-1.7,4.9-2.6,8-2.6c0.4,0,0.9,0,1.4,0.1c0.5,0,0.9,0.1,1.4,0.2
		v14.5c-0.8-0.1-1.6-0.1-2.4-0.2c-0.8,0-1.6-0.1-2.4-0.1c-1.3,0-2.6,0.2-3.9,0.5c-1.3,0.4-2.5,1-3.6,1.8c-1.1,0.8-2,1.9-2.6,3.3
		c-0.7,1.4-1,3-1,5v35.4h-15.1V24.5H212z"/>
	<path class="st0" d="M246.9,61c0,1.8,0.1,3.5,0.4,5.1c0.3,1.6,0.7,3.1,1.3,4.4c0.6,1.3,1.4,2.3,2.3,3.1c0.9,0.8,2.1,1.2,3.5,1.2
		c2.6,0,4.4-0.9,5.6-2.7c1.2-1.8,2-4.6,2.4-8.3h13.6c-0.3,6.9-2.1,12.1-5.5,15.7c-3.4,3.6-8.7,5.4-15.9,5.4c-5.5,0-9.7-0.9-12.8-2.7
		c-3.1-1.8-5.3-4.2-6.8-7.2c-1.5-3-2.4-6.4-2.7-10.1s-0.5-7.4-0.5-11.2c0-3.9,0.3-7.7,0.8-11.4c0.5-3.7,1.6-6.9,3.3-9.8
		c1.6-2.8,4-5.1,7.1-6.8c3.1-1.7,7.2-2.5,12.3-2.5c4.4,0,8,0.7,10.8,2.1c2.8,1.4,5,3.4,6.6,6c1.6,2.6,2.7,5.7,3.3,9.4
		c0.6,3.7,0.9,7.8,0.9,12.3v3.4h-29.9V61z M261.9,41.4c-0.2-1.7-0.6-3.2-1.1-4.4c-0.5-1.2-1.3-2.1-2.3-2.7c-1-0.6-2.2-0.9-3.8-0.9
		s-2.8,0.3-3.8,1c-1,0.7-1.8,1.6-2.4,2.7c-0.6,1.1-1,2.4-1.3,3.8c-0.3,1.4-0.4,2.8-0.4,4.2v2.3h15.4
		C262.3,45.1,262.1,43.1,261.9,41.4z"/>
	<path class="st0" d="M295.8,66.2c0,2.6,0.7,4.6,2,6.2c1.4,1.6,3.3,2.4,5.9,2.4c2.3,0,4.2-0.6,5.6-1.8c1.4-1.2,2.1-2.9,2.1-5.3
		c0-1.9-0.5-3.3-1.6-4.3c-1.1-1-2.4-1.8-3.8-2.4l-10.6-3.8c-4.2-1.5-7.3-3.5-9.4-6.2c-2.1-2.7-3.2-6.1-3.2-10.2
		c0-2.4,0.4-4.7,1.2-6.8c0.8-2.2,2.1-4,3.8-5.6c1.8-1.6,4-2.9,6.7-3.8c2.7-0.9,6-1.4,9.9-1.4c6.9,0,11.9,1.5,15.2,4.4
		c3.3,2.9,4.9,7,4.9,12.4v2.4h-13.6c0-3.1-0.5-5.3-1.5-6.7c-1-1.4-2.7-2.1-5.2-2.1c-1.9,0-3.6,0.5-5,1.6c-1.4,1.1-2.1,2.6-2.1,4.8
		c0,1.5,0.5,2.8,1.4,3.9c0.9,1.2,2.6,2.2,5.2,3l9.1,3.1c4.7,1.6,8.1,3.7,10.1,6.3c2,2.6,3,6.1,3,10.6c0,3.1-0.5,5.9-1.6,8.2
		c-1.1,2.3-2.6,4.2-4.5,5.8c-1.9,1.5-4.2,2.6-6.9,3.3c-2.7,0.7-5.6,1-8.8,1c-4.2,0-7.8-0.4-10.6-1.2c-2.8-0.8-5-2-6.7-3.6
		c-1.6-1.6-2.8-3.6-3.5-5.9s-1-4.9-1-7.7v-2.1h13.6V66.2z"/>
	<path class="st1" d="M346.3,61c0,1.8,0.1,3.5,0.4,5.1c0.3,1.6,0.7,3.1,1.3,4.4c0.6,1.3,1.4,2.3,2.3,3.1c0.9,0.8,2.1,1.2,3.5,1.2
		c2.6,0,4.4-0.9,5.6-2.7c1.2-1.8,2-4.6,2.4-8.3h13.6c-0.3,6.9-2.1,12.1-5.5,15.7c-3.4,3.6-8.7,5.4-15.9,5.4c-5.5,0-9.7-0.9-12.8-2.7
		c-3.1-1.8-5.3-4.2-6.8-7.2c-1.5-3-2.4-6.4-2.7-10.1s-0.5-7.4-0.5-11.2c0-3.9,0.3-7.7,0.8-11.4c0.5-3.7,1.6-6.9,3.3-9.8
		c1.6-2.8,4-5.1,7.1-6.8c3.1-1.7,7.2-2.5,12.3-2.5c4.4,0,8,0.7,10.8,2.1c2.8,1.4,5,3.4,6.6,6c1.6,2.6,2.7,5.7,3.3,9.4
		c0.6,3.7,0.9,7.8,0.9,12.3v3.4h-29.9V61z M361.3,41.4c-0.2-1.7-0.6-3.2-1.1-4.4c-0.5-1.2-1.3-2.1-2.3-2.7c-1-0.6-2.2-0.9-3.8-0.9
		s-2.8,0.3-3.8,1c-1,0.7-1.8,1.6-2.4,2.7c-0.6,1.1-1,2.4-1.3,3.8c-0.3,1.4-0.4,2.8-0.4,4.2v2.3h15.4
		C361.6,45.1,361.5,43.1,361.3,41.4z"/>
	<path class="st1" d="M414.1,77.2c-1.7,2.8-3.6,4.7-5.6,5.8c-2.1,1.1-4.7,1.6-7.7,1.6c-6.2,0-10.8-2.4-13.7-7.1
		c-2.9-4.7-4.4-12.6-4.4-23.6s1.5-18.9,4.4-23.7c2.9-4.9,7.5-7.3,13.7-7.3c2.8,0,5.3,0.6,7.3,1.8c2,1.2,3.8,2.9,5.4,5.3h0.2V5.3
		h15.1v78.2h-14.5v-6.2H414.1z M399.2,68.5c1,3.3,3.1,4.9,6.4,4.9c3.4,0,5.5-1.6,6.5-4.9c1-3.2,1.5-8.1,1.5-14.5
		c0-6.4-0.5-11.3-1.5-14.5c-1-3.2-3.2-4.9-6.5-4.9c-3.3,0-5.4,1.6-6.4,4.9c-1,3.2-1.5,8.1-1.5,14.5
		C397.8,60.4,398.2,65.3,399.2,68.5z"/>
	<path class="st1" d="M454.5,4.4v12.9h-15.1V4.4H454.5z M454.5,24.5v58.9h-15.1V24.5H454.5z"/>
	<path class="st1" d="M483.5,7.7v16.9h8.8v10.3h-8.8v31.9c0,2.3,0.3,4,1,5c0.7,1,2.1,1.5,4.3,1.5c0.6,0,1.2,0,1.8-0.1
		c0.6,0,1.1-0.1,1.6-0.2v10.5c-1.7,0-3.3,0.1-4.9,0.2c-1.6,0.1-3.2,0.2-5,0.2c-2.9,0-5.3-0.2-7.2-0.6c-1.9-0.4-3.3-1.2-4.3-2.4
		s-1.7-2.8-2-4.8s-0.5-4.5-0.5-7.4V34.8h-7.7V24.5h7.7V7.7H483.5z"/>
	<path class="st1" d="M496.8,40.6c0.8-3.9,2.1-7.1,3.9-9.7c1.8-2.6,4.2-4.6,7.2-5.9c3-1.4,6.6-2,10.9-2c4.5-0.1,8.3,0.5,11.3,1.8
		c3,1.3,5.4,3.2,7.1,5.9c1.8,2.6,3,5.9,3.7,9.7c0.7,3.9,1.1,8.4,1.1,13.6c0,5-0.4,9.5-1.2,13.4c-0.8,3.9-2.1,7.1-3.9,9.7
		c-1.8,2.6-4.2,4.5-7.2,5.8c-3,1.2-6.6,1.9-10.9,1.9c-4.5,0.1-8.3-0.5-11.3-1.7c-3-1.2-5.4-3.1-7.1-5.7c-1.8-2.6-3-5.8-3.7-9.7
		c-0.7-3.9-1.1-8.4-1.1-13.5C495.6,49,496,44.5,496.8,40.6z M510.9,62.3c0.1,2.6,0.5,4.7,1,6.6c0.5,1.8,1.4,3.2,2.5,4.3
		c1.1,1,2.6,1.5,4.4,1.5c3.1,0,5.2-1.6,6.4-4.8c1.2-3.2,1.8-8.5,1.8-15.9c0-7.4-0.6-12.7-1.8-15.9c-1.2-3.2-3.3-4.8-6.4-4.8
		c-1.8,0-3.3,0.5-4.4,1.5c-1.1,1-1.9,2.4-2.5,4.3c-0.5,1.8-0.9,4-1,6.6c-0.1,2.6-0.2,5.3-0.2,8.3C510.7,57,510.8,59.8,510.9,62.3z"
		/>
	<path class="st1" d="M564.6,24.5v7.9h0.2c1.5-2.8,3.4-5.1,5.6-6.8c2.2-1.7,4.9-2.6,8-2.6c0.4,0,0.9,0,1.4,0.1
		c0.5,0,0.9,0.1,1.4,0.2v14.5c-0.8-0.1-1.6-0.1-2.4-0.2c-0.8,0-1.6-0.1-2.4-0.1c-1.3,0-2.6,0.2-3.9,0.5c-1.3,0.4-2.5,1-3.6,1.8
		c-1.1,0.8-2,1.9-2.6,3.3c-0.7,1.4-1,3-1,5v35.4h-15.1V24.5H564.6z"/>
	<path class="st1" d="M599.5,61c0,1.8,0.1,3.5,0.4,5.1c0.3,1.6,0.7,3.1,1.3,4.4c0.6,1.3,1.3,2.3,2.3,3.1c0.9,0.8,2.1,1.2,3.5,1.2
		c2.6,0,4.4-0.9,5.6-2.7c1.2-1.8,2-4.6,2.4-8.3h13.6c-0.3,6.9-2.1,12.1-5.5,15.7c-3.4,3.6-8.7,5.4-15.9,5.4c-5.5,0-9.7-0.9-12.8-2.7
		c-3.1-1.8-5.3-4.2-6.8-7.2c-1.5-3-2.4-6.4-2.7-10.1c-0.3-3.7-0.5-7.4-0.5-11.2c0-3.9,0.3-7.7,0.8-11.4c0.5-3.7,1.6-6.9,3.3-9.8
		c1.6-2.8,4-5.1,7.1-6.8c3.1-1.7,7.2-2.5,12.3-2.5c4.4,0,8,0.7,10.8,2.1c2.8,1.4,5,3.4,6.6,6c1.6,2.6,2.7,5.7,3.3,9.4
		c0.6,3.7,0.9,7.8,0.9,12.3v3.4h-29.9V61z M614.5,41.4c-0.2-1.7-0.6-3.2-1.1-4.4s-1.3-2.1-2.3-2.7c-1-0.6-2.2-0.9-3.8-0.9
		s-2.8,0.3-3.8,1c-1,0.7-1.8,1.6-2.4,2.7c-0.6,1.1-1,2.4-1.3,3.8c-0.3,1.4-0.4,2.8-0.4,4.2v2.3H615
		C614.9,45.1,614.8,43.1,614.5,41.4z"/>
	<path class="st1" d="M648.4,66.2c0,2.6,0.7,4.6,2,6.2c1.3,1.6,3.3,2.4,5.9,2.4c2.3,0,4.2-0.6,5.6-1.8c1.4-1.2,2.1-2.9,2.1-5.3
		c0-1.9-0.5-3.3-1.6-4.3c-1.1-1-2.4-1.8-3.8-2.4l-10.6-3.8c-4.2-1.5-7.3-3.5-9.4-6.2c-2.1-2.7-3.2-6.1-3.2-10.2
		c0-2.4,0.4-4.7,1.2-6.8c0.8-2.2,2.1-4,3.8-5.6c1.8-1.6,4-2.9,6.7-3.8c2.7-0.9,6-1.4,9.9-1.4c6.9,0,11.9,1.5,15.2,4.4
		c3.3,2.9,4.9,7,4.9,12.4v2.4h-13.6c0-3.1-0.5-5.3-1.5-6.7c-1-1.4-2.7-2.1-5.2-2.1c-1.9,0-3.6,0.5-5,1.6c-1.4,1.1-2.1,2.6-2.1,4.8
		c0,1.5,0.5,2.8,1.4,3.9c0.9,1.2,2.6,2.2,5.2,3l9.1,3.1c4.7,1.6,8.1,3.7,10.1,6.3c2,2.6,3,6.1,3,10.6c0,3.1-0.5,5.9-1.6,8.2
		c-1.1,2.3-2.6,4.2-4.5,5.8c-1.9,1.5-4.2,2.6-6.9,3.3c-2.7,0.7-5.6,1-8.8,1c-4.2,0-7.8-0.4-10.6-1.2c-2.8-0.8-5-2-6.7-3.6
		c-1.6-1.6-2.8-3.6-3.5-5.9s-1-4.9-1-7.7v-2.1h13.6V66.2z"/>
	<path class="st1" d="M687.5,75.7h5.2v7.8h-5.2V75.7z"/>
	<path class="st1" d="M727.7,70c-0.7,8.6-5.4,14.4-12.9,14.4c-8.6,0-13.6-6-13.6-21.2c0-14,5-21.2,14-21.2c7.6,0,12.1,4.7,12.5,13
		h-4.6c-0.5-6.3-3.1-9.2-7.9-9.2c-5,0-9.1,3.1-9.1,17.4c0,15.3,4.4,17.3,8.6,17.3c4.7,0,7.6-3.4,8.4-10.5H727.7z"/>
	<path class="st1" d="M746,42c8.9,0,14,7.1,14,21.2c0,14.1-5,21.2-14,21.2s-14-7.1-14-21.2C732,49.1,737,42,746,42z M746,80.6
		c5.1,0,9.1-4.4,9.1-17.4c0-12.9-4-17.3-9.1-17.3s-9.1,4.4-9.1,17.3C736.9,76.1,740.9,80.6,746,80.6z"/>
	<path class="st1" d="M766.7,42.9h4.1v5.7h0.2c2.1-4.5,5.8-6.6,10.3-6.6c4.9,0,7.9,3,8.5,7.1h0.2c1.8-4.5,5.1-7.1,10.3-7.1
		c5.7,0,9.4,3.2,9.4,10.5v31H805V53.2c0-4.8-2.2-7.3-6.3-7.3c-4.6,0-8.2,4.1-8.2,10.4v27.3h-4.6V53.2c0-4.8-2.2-7.3-6.3-7.3
		c-4.6,0-8.2,4.1-8.2,10.4v27.3h-4.6V42.9z"/>
</g>
<g>
</g>
<g>
</g>
<g>
</g>
<g>
</g>
<g>
</g>
<g>
</g>
<g>
</g>
<g>
</g>
<g>
</g>
<g>
</g>
<g>
</g>
<g>
</g>
<g>
</g>
<g>
</g>
<g>
</g>
</svg>
